<svg xmlns="http://www.w3.org/2000/svg" viewBox="0 0 1440 320"><path fill="#f2f2f2" fill-opacity="1" d="M0,128L15,122.7C30,117,60,107,90,128C120,149,150,203,180,229.3C210,256,240,256,270,245.3C300,235,330,213,360,181.3C390,149,420,107,450,117.3C480,128,510,192,540,192C570,192,600,128,630,112C660,96,690,128,720,133.3C750,139,780,117,810,106.7C840,96,870,96,900,117.3C930,139,960,181,990,170.7C1020,160,1050,96,1080,112C1110,128,1140,224,1170,250.7C1200,277,1230,235,1260,208C1290,181,1320,171,1350,165.3C1380,160,1410,160,1425,160L1440,160L1440,320L1425,320C1410,320,1380,320,1350,320C1320,320,1290,320,1260,320C1230,320,1200,320,1170,320C1140,320,1110,320,1080,320C1050,320,1020,320,990,320C960,320,930,320,900,320C870,320,840,320,810,320C780,320,750,320,720,320C690,320,660,320,630,320C600,320,570,320,540,320C510,320,480,320,450,320C420,320,390,320,360,320C330,320,300,320,270,320C240,320,210,320,180,320C150,320,120,320,90,320C60,320,30,320,15,320L0,320Z"></path></svg>
